<svg width="112" height="112" viewBox="0 0 112 112" fill="none" xmlns="http://www.w3.org/2000/svg">
<g filter="url(#filter0_d_0_180)">
<path fill-rule="evenodd" clip-rule="evenodd" d="M56 86C75.8823 86 92 69.8823 92 50C92 30.1177 75.8823 14 56 14C36.1177 14 20 30.1177 20 50C20 69.8823 36.1177 86 56 86Z" fill="#F15F41"/>
</g>
<path fill-rule="evenodd" clip-rule="evenodd" d="M58.5876 36.2218C58.5876 35.4571 57.9677 34.8372 57.203 34.8372L56.1816 34.8372C55.4169 34.8372 54.797 35.4571 54.797 36.2218L54.797 48.1045L42.9142 48.1045C42.1495 48.1045 41.5296 48.7244 41.5296 49.4891L41.5296 50.5106C41.5296 51.2753 42.1495 51.8952 42.9142 51.8952L54.797 51.8952V63.7779C54.797 64.5426 55.4169 65.1626 56.1816 65.1626H57.203C57.9677 65.1626 58.5876 64.5426 58.5876 63.7779V51.8952L70.4704 51.8952C71.2351 51.8952 71.855 51.2753 71.855 50.5106L71.855 49.4891C71.855 48.7244 71.2351 48.1045 70.4704 48.1045L58.5876 48.1045L58.5876 36.2218Z" fill="white"/>
<mask id="mask0_0_180" style="mask-type:luminance" maskUnits="userSpaceOnUse" x="41" y="34" width="31" height="32">
<path fill-rule="evenodd" clip-rule="evenodd" d="M58.5876 36.2218C58.5876 35.4571 57.9677 34.8372 57.203 34.8372L56.1816 34.8372C55.4169 34.8372 54.797 35.4571 54.797 36.2218L54.797 48.1045L42.9142 48.1045C42.1495 48.1045 41.5296 48.7244 41.5296 49.4891L41.5296 50.5106C41.5296 51.2753 42.1495 51.8952 42.9142 51.8952L54.797 51.8952V63.7779C54.797 64.5426 55.4169 65.1626 56.1816 65.1626H57.203C57.9677 65.1626 58.5876 64.5426 58.5876 63.7779V51.8952L70.4704 51.8952C71.2351 51.8952 71.855 51.2753 71.855 50.5106L71.855 49.4891C71.855 48.7244 71.2351 48.1045 70.4704 48.1045L58.5876 48.1045L58.5876 36.2218Z" fill="white"/>
</mask>
<g mask="url(#mask0_0_180)">
</g>
<defs>
<filter id="filter0_d_0_180" x="0" y="0" width="112" height="112" filterUnits="userSpaceOnUse" color-interpolation-filters="sRGB">
<feFlood flood-opacity="0" result="BackgroundImageFix"/>
<feColorMatrix in="SourceAlpha" type="matrix" values="0 0 0 0 0 0 0 0 0 0 0 0 0 0 0 0 0 0 127 0" result="hardAlpha"/>
<feOffset dy="6"/>
<feGaussianBlur stdDeviation="10"/>
<feColorMatrix type="matrix" values="0 0 0 0 0.945098 0 0 0 0 0.372549 0 0 0 0 0.254902 0 0 0 0.6 0"/>
<feBlend mode="normal" in2="BackgroundImageFix" result="effect1_dropShadow_0_180"/>
<feBlend mode="normal" in="SourceGraphic" in2="effect1_dropShadow_0_180" result="shape"/>
</filter>
</defs>
</svg>
